<?xml version="1.0" encoding="UTF-8"?>
<svg width="65px" height="65px" viewBox="0 0 65 65" version="1.1" xmlns="http://www.w3.org/2000/svg" xmlns:xlink="http://www.w3.org/1999/xlink">
    <title>Application Icons/Alibaba/65x65</title>
    <defs>
        <rect id="path-1" x="0" y="0" width="65" height="65" rx="16"></rect>
        <polygon id="path-3" points="2.63095238e-05 0.0413834254 16.4580805 0.0413834254 16.4580805 24 2.63095238e-05 24"></polygon>
        <polygon id="path-5" points="0.113183571 0.0413834254 16.5696065 0.0413834254 16.5696065 24 0.113183571 24"></polygon>
    </defs>
    <g id="Application-Icons/Alibaba/65x65" stroke="none" stroke-width="1" fill="none" fill-rule="evenodd">
        <mask id="mask-2" fill="white">
            <use xlink:href="#path-1"></use>
        </mask>
        <use id="Mask" fill="#FF6A03" fill-rule="nonzero" xlink:href="#path-1"></use>
        <g id="Group" mask="url(#mask-2)">
            <g transform="translate(13.000000, 20.500000)">
                <g id="Group-7" stroke-width="1" fill="none" transform="translate(0.000000, 0.500000)">
                    <g id="Group-3">
                        <mask id="mask-4" fill="white">
                            <use xlink:href="#path-3"></use>
                        </mask>
                        <g id="Clip-2"></g>
                        <path d="M15.5325114,20.3127646 L6.90338226,18.4212729 C6.1167275,18.2388199 5.52489476,17.5442785 5.49003464,16.7052066 C5.48648286,16.6808088 5.48648286,7.36058785 5.49003464,7.33672044 C5.52489476,6.49738343 6.1167275,5.80270939 6.90338226,5.62012376 L15.5325114,3.72863204 L16.4580805,0.0413834254 L6.40205429,0.0413834254 C2.87526262,0.0413834254 0.0139703571,2.91528398 2.63095238e-05,6.4663558 L2.63095238e-05,17.5745105 C0.0139703571,21.1257149 2.87526262,24.0000133 6.40205429,24.0000133 L16.4580805,24.0000133 L15.5325114,20.3127646 Z" id="Fill-1" fill="#FFFFFF" mask="url(#mask-4)"></path>
                    </g>
                    <g id="Group-6" transform="translate(22.425000, 0.000000)">
                        <mask id="mask-6" fill="white">
                            <use xlink:href="#path-5"></use>
                        </mask>
                        <g id="Clip-5"></g>
                        <path d="M1.03914726,20.3127646 L9.66696095,18.4212729 C10.4540104,18.2388199 11.0451854,17.5442785 11.0800455,16.7052066 C11.0843865,16.6808088 11.0843865,7.36058785 11.0800455,7.33672044 C11.0451854,6.49738343 10.4540104,5.80270939 9.66696095,5.62012376 L1.03914726,3.72863204 L0.113183571,0.0413834254 L10.1682889,0.0413834254 C13.6950806,0.0413834254 16.5567675,2.91528398 16.5696592,6.4663558 L16.5696592,17.5745105 C16.5567675,21.1257149 13.6950806,24.0000133 10.1682889,24.0000133 L0.113183571,24.0000133 L1.03914726,20.3127646 Z" id="Fill-4" fill="#FFFFFF" mask="url(#mask-6)"></path>
                    </g>
                </g>
                <rect id="Rectangle" fill="#FFFFFF" x="13" y="11.5" width="14" height="3"></rect>
            </g>
        </g>
    </g>
</svg>